<svg xmlns="http://www.w3.org/2000/svg" viewBox="0 0 568 186.43"><defs><style>.cls-1{fill:#96bd67;}.cls-2{fill:#da8c32;}.cls-3{fill:#448891;}.cls-4{fill:#333334;}</style></defs><title>Ресурс 1</title><g id="Слой_2" data-name="Слой 2"><g id="Слой_1-2" data-name="Слой 1"><path class="cls-1" d="M78.41,133.65A14.47,14.47,0,1,1,64,148.12a14.47,14.47,0,0,1,14.45-14.47m0-12.42a26.89,26.89,0,1,0,26.85,26.89,26.87,26.87,0,0,0-26.85-26.89Z"/><path class="cls-2" d="M189.26,134.1a14,14,0,1,1-14,14,14,14,0,0,1,14-14m0-12.42a26.44,26.44,0,1,0,26.4,26.44,26.41,26.41,0,0,0-26.4-26.44Z"/><path class="cls-3" d="M138.83,25.47A22.33,22.33,0,1,1,116.54,47.8a22.34,22.34,0,0,1,22.29-22.33m0-21.29A43.62,43.62,0,1,0,182.39,47.8,43.59,43.59,0,0,0,138.83,4.18Z"/><path class="cls-4" d="M179.36,113.22a2.84,2.84,0,0,1-2.28-1.15L165.79,96.7a2.83,2.83,0,1,1,4.55-3.35l11.29,15.37a2.82,2.82,0,0,1-2.27,4.5Z"/><path class="cls-4" d="M94.86,113.22a2.82,2.82,0,0,1-2.27-4.5l11.29-15.37a2.82,2.82,0,1,1,4.54,3.35L97.13,112.07A2.82,2.82,0,0,1,94.86,113.22Z"/><path class="cls-4" d="M82.39,63A32.7,32.7,0,0,1,69.79,75a49.22,49.22,0,0,1-20,5.71v12H37v-12A49.22,49.22,0,0,1,17,75,33.16,33.16,0,0,1,4.33,63,32.14,32.14,0,0,1,0,46.37,32.49,32.49,0,0,1,4.33,29.69,32.56,32.56,0,0,1,17,17.65,49.68,49.68,0,0,1,37,12V3.46A3.45,3.45,0,0,1,40.4,0h6a3.46,3.46,0,0,1,3.45,3.46V12a49.68,49.68,0,0,1,20,5.66,32.12,32.12,0,0,1,12.6,12,32.84,32.84,0,0,1,4.27,16.68A32.49,32.49,0,0,1,82.39,63ZM19.61,61.56q6.16,5.94,17.68,7.19V23.87q-11.52,1.26-17.68,7.25a20.39,20.39,0,0,0-6.15,15.25A20.19,20.19,0,0,0,19.61,61.56Zm47.5,0a20.3,20.3,0,0,0,6.1-15.19,20.5,20.5,0,0,0-6.1-15.25q-6.11-6-17.62-7.25V68.75Q61,67.51,67.11,61.56Z"/><path class="cls-4" d="M193.3,12.14a3.46,3.46,0,0,1,3.45-3.46h26.31A27,27,0,0,1,237,12.16a23.47,23.47,0,0,1,9,9.25,25.75,25.75,0,0,1,3.08,12.28A24.42,24.42,0,0,1,246,45.74a23,23,0,0,1-9,8.91A28.1,28.1,0,0,1,222.83,58H206.75V86.34H193.3Zm28,34.34q7,0,10.55-3.77a12.75,12.75,0,0,0,3.59-9.13,12.74,12.74,0,0,0-3.76-9.37,13.58,13.58,0,0,0-10-3.77H206.75v26Z"/><path class="cls-4" d="M343.38,86.34H330.15l-6.15-42c-.54-4-.84-6.66-.92-7.88-.91,1.68-2.43,4.11-4.56,7.31L301.6,69.55a2.52,2.52,0,0,1-2.12,1.15h0a2.56,2.56,0,0,1-2.12-1.15L280.55,43.74q-2.51-3.54-4.79-7.53-.12,2.16-.45,4.68c-.23,1.67-.39,2.85-.46,3.54l-5.93,41.91H255.69l11.05-75.8a2.84,2.84,0,0,1,2.81-2.43h0a2.84,2.84,0,0,1,2.38,1.29L294.46,44q2.75,4.34,5,8.11,2.28-3.77,5-8.11L327.15,9.39a2.82,2.82,0,0,1,2.37-1.28h0a2.84,2.84,0,0,1,2.81,2.43Z"/><path class="cls-4" d="M413.26,8.68a3.46,3.46,0,0,1,3.14,4.91L394.14,61.9a74.59,74.59,0,0,1-8.78,14.91,24.77,24.77,0,0,1-10,7.53,41.32,41.32,0,0,1-11.66,2.56A3.47,3.47,0,0,1,360,83.78l-.47-4.73a3.48,3.48,0,0,1,3.15-3.79A24.87,24.87,0,0,0,371.11,73a19.47,19.47,0,0,0,7.52-6.91L350.78,13.77a3.46,3.46,0,0,1,3.05-5.09h6.75a3.47,3.47,0,0,1,3.06,1.86l21.72,41.54L403.5,10.75a3.45,3.45,0,0,1,3.16-2.07Z"/><path class="cls-4" d="M412.25,79.37a3.45,3.45,0,0,1,2.6-3.9,13.75,13.75,0,0,0,5.92-2.89q3.36-2.91,5.3-9a94.53,94.53,0,0,0,3.19-17l3.88-34.84a3.45,3.45,0,0,1,3.43-3.08h42.15a3.45,3.45,0,0,1,3.45,3.46v74.2H468.72V21.13H445.11l-3.3,29.81q-1.49,12.9-4.91,20.67t-9.12,11.48a26.56,26.56,0,0,1-10.89,3.85A3.47,3.47,0,0,1,413,84.05Z"/><path class="cls-4" d="M565.11,86.34H554.77a1.73,1.73,0,0,1-1.58-1l-5.92-13H510.89l-5.81,13a1.74,1.74,0,0,1-1.58,1H493.11a1.73,1.73,0,0,1-1.57-2.47l34.37-73.14a3.89,3.89,0,0,1,3.23-2.05h0a3.92,3.92,0,0,1,3.23,2.06l34.31,73.14A1.73,1.73,0,0,1,565.11,86.34ZM523.89,43.17l-8.44,18.5h27.37l-8.44-18.5a139,139,0,0,1-5.24-13.25h0Q526.62,36.78,523.89,43.17Z"/><path class="cls-4" d="M117,125.1a3.46,3.46,0,0,1,3.46-3.46h16.83a18.35,18.35,0,0,1,9.49,2.38,15.9,15.9,0,0,1,6.14,6.31,17.5,17.5,0,0,1,2.1,8.37,16.64,16.64,0,0,1-2.1,8.21,15.81,15.81,0,0,1-6.14,6.08,19.23,19.23,0,0,1-9.64,2.29h-11v19.31H117Zm19.13,22.32q4.74,0,7.19-2.57a9.19,9.19,0,0,0-.12-12.62,9.25,9.25,0,0,0-6.84-2.57H126.17v17.76Z"/><path class="cls-4" d="M289.43,123.37v51.22H224V123.37a1.74,1.74,0,0,1,1.73-1.73h5.72a1.74,1.74,0,0,1,1.73,1.73v42.74h19.05V123.37a1.73,1.73,0,0,1,1.72-1.73h5.57a1.74,1.74,0,0,1,1.73,1.73v42.74h19V123.37a1.74,1.74,0,0,1,1.73-1.73h5.72A1.74,1.74,0,0,1,289.43,123.37Z"/><path class="cls-4" d="M345.93,123.23v49.63a1.72,1.72,0,0,1-1.72,1.73h-5.72a1.72,1.72,0,0,1-1.73-1.73V146.09q0-3.74.23-7.55-1.86,2.1-6.06,6.7l-27,29.06a1.88,1.88,0,0,1-1.39.6h0a1.89,1.89,0,0,1-1.89-1.89V123.37a1.73,1.73,0,0,1,1.72-1.73h5.72a1.73,1.73,0,0,1,1.73,1.73v26.77c0,2.49-.08,5-.23,7.48q3.26-3.9,6.14-6.93l27-28.76a1.91,1.91,0,0,1,1.38-.6h0A1.9,1.9,0,0,1,345.93,123.23Z"/><path class="cls-4" d="M371.9,147.18l-15.39-22.84a1.73,1.73,0,0,1,1.43-2.7h6.5a1.74,1.74,0,0,1,1.44.78l6.88,10.44q2.72,4,4.74,7.63,2.1-3.75,4.74-7.79L389,122.43a1.73,1.73,0,0,1,1.45-.79h6.42a1.74,1.74,0,0,1,1.44,2.7l-15.33,22.84,16.61,24.34a1.73,1.73,0,0,1-1.43,2.71h-6.56a1.73,1.73,0,0,1-1.44-.77l-8-12.1q-2.8-4.22-4.67-7.48-2.49,4.37-4.66,7.48l-8.11,12.1a1.73,1.73,0,0,1-1.43.77h-6.56a1.73,1.73,0,0,1-1.43-2.71Z"/><path class="cls-4" d="M17,147.36,1.58,124.52A1.73,1.73,0,0,1,3,121.82h6.5a1.7,1.7,0,0,1,1.44.78L17.83,133q2.72,4,4.74,7.63,2.1-3.74,4.74-7.78L34,122.6a1.76,1.76,0,0,1,1.45-.78H41.9a1.73,1.73,0,0,1,1.44,2.7L28,147.36,44.62,171.7a1.73,1.73,0,0,1-1.42,2.71H36.63a1.72,1.72,0,0,1-1.44-.78l-8-12.1q-2.81-4.2-4.67-7.47-2.49,4.37-4.66,7.47L9.72,173.64a1.73,1.73,0,0,1-1.43.77H1.73a1.73,1.73,0,0,1-1.42-2.71Z"/><path class="cls-4" d="M474.16,167.84V184.7a1.74,1.74,0,0,1-1.73,1.73h-5.25a1.73,1.73,0,0,1-1.73-1.73V174.59H429.61V184.7a1.73,1.73,0,0,1-1.73,1.73h-5.17A1.73,1.73,0,0,1,421,184.7V167.84a1.72,1.72,0,0,1,1.73-1.73h4.41a45.63,45.63,0,0,0,3.3-8.45,57.06,57.06,0,0,0,1.75-9.77l2.56-24.7a1.74,1.74,0,0,1,1.72-1.55H466a1.74,1.74,0,0,1,1.73,1.73v42.74h4.72A1.73,1.73,0,0,1,474.16,167.84Zm-37.32-1.73h21.85v-36H443.14L441,149.6A59.81,59.81,0,0,1,436.84,166.11Z"/><path class="cls-4" d="M516.14,168.23v4.63a1.72,1.72,0,0,1-1.73,1.73H482.17V121.64h31.55a1.73,1.73,0,0,1,1.72,1.73V128a1.72,1.72,0,0,1-1.72,1.73H491.34v14h19.34a1.72,1.72,0,0,1,1.73,1.73v4.4a1.72,1.72,0,0,1-1.73,1.73H491.34V166.5h23.07A1.72,1.72,0,0,1,516.14,168.23Z"/><path class="cls-4" d="M520.23,169.25a1.71,1.71,0,0,1,1.36-2,9.59,9.59,0,0,0,4.54-2.08,13.17,13.17,0,0,0,3.62-6.15,64.72,64.72,0,0,0,2.17-11.57l2.71-24.31a1.74,1.74,0,0,1,1.72-1.54h29.92a1.73,1.73,0,0,1,1.73,1.73v51.22h-9.17V130.13h-16.1l-2.25,20.32a49.8,49.8,0,0,1-3.35,14.1,17.24,17.24,0,0,1-6.22,7.82,18.34,18.34,0,0,1-8.12,2.72,1.71,1.71,0,0,1-1.85-1.45Z"/></g></g></svg>