<?xml version="1.0" encoding="utf-8"?>
<!-- Generator: Adobe Illustrator 26.1.0, SVG Export Plug-In . SVG Version: 6.00 Build 0)  -->
<svg version="1.1" id="Слой_1" xmlns="http://www.w3.org/2000/svg" xmlns:xlink="http://www.w3.org/1999/xlink" x="0px" y="0px"
	 viewBox="0 0 256 256" style="enable-background:new 0 0 256 256;" xml:space="preserve">
<style type="text/css">
	.st0{fill:#4DDB82;}
	.st1{fill:#41BA6E;}
	.st2{fill:#218F4A;}
	.st3{fill:#26A354;}
	.st4{fill:#DFFFFE;}
	.st5{fill:#00939E;}
	.st6{fill:#005258;}
	.st7{fill:#FFCBC9;}
	.st8{fill:#FFFFFF;}
	.st9{fill:#FF665F;}
	.st10{fill:#00DED4;}
	.st11{fill:none;stroke:#FFFFFF;stroke-width:1.2963;stroke-miterlimit:10;}
	.st12{fill:#00F7EC;}
</style>
<g>
	<path class="st0" d="M199.1,168.8H0.4v-31.4h198.7V168.8z"/>
	<path class="st1" d="M34.2,103.3h0.5l-1.2-3.5l-1.2,3.5h0.5l-0.5,1.5h0.5l-0.5,1.5h2.5l-0.5-1.5h0.5L34.2,103.3z"/>
	<path class="st1" d="M39.1,101.7h0.5l-1.1-3.2l-1.1,3.2h0.5l-0.5,1.4h0.5l-0.5,1.3h2.3l-0.5-1.3h0.5L39.1,101.7z"/>
	<path class="st2" d="M42.3,97.6h0.9l-2.2-6.9l-2.2,6.9h1l-1,2.8h1l-1,2.9h4.5l-0.9-2.9h0.9L42.3,97.6z"/>
	<path class="st3" d="M37.1,99.6h0.7l-1.7-6.3l-1.7,6.3h0.7l-0.7,2.6h0.7l-0.7,2.6h3.4l-0.7-2.6h0.7L37.1,99.6z"/>
	<path class="st3" d="M32.3,103.5h0.6l-1.5-5.2l-1.5,5.2h0.6l-0.6,2.2h0.6l-0.6,2.2h3l-0.6-2.2h0.6L32.3,103.5z"/>
	<path class="st2" d="M29.7,106h0.4l-1-4.6l-1,4.6h0.4l-0.4,1.9h0.4l-0.4,1.9h2.1l-0.4-1.9h0.4L29.7,106z"/>
	<path class="st0" d="M19.6,115h0.5l-1.2-3.6l-1.2,3.6h0.5l-0.5,1.5h0.5l-0.5,1.5h2.5l-0.5-1.5h0.5L19.6,115z"/>
	<path class="st1" d="M24.6,110.1h0.5l-1.1-3.3l-1.1,3.3h0.5l-0.5,1.3h0.5l-0.5,1.4h2.2l-0.5-1.4h0.5L24.6,110.1z"/>
	<path class="st2" d="M27.8,106h0.9l-2.2-6.8l-2.2,6.8h1l-1,2.9h1l-1,2.9h4.5l-0.9-2.9h0.9L27.8,106z"/>
	<path class="st3" d="M22.6,110.2h0.7l-1.7-6.4l-1.7,6.4h0.7l-0.7,2.7h0.7l-0.7,2.7h3.4l-0.7-2.7h0.7L22.6,110.2z"/>
	<path class="st3" d="M17.7,115.2h0.6l-1.5-5.3l-1.5,5.3H16l-0.6,2.2H16l-0.6,2.2h3l-0.6-2.2h0.6L17.7,115.2z"/>
	<path class="st2" d="M15.1,118.2h0.4l-1-5.4l-1,5.4h0.4l-0.4,2.3h0.4l-0.4,2.3h2.1l-0.4-2.3h0.4L15.1,118.2z"/>
	<path class="st3" d="M13.4,120H14l-1.5-6.2L11,120h0.6l-0.6,2.6h0.6l-0.6,2.6h3l-0.6-2.6H14L13.4,120z"/>
	<path class="st2" d="M11.2,123.3h0.4l-1-5.4l-1,5.4H10l-0.4,2.3H10l-0.4,2.2h2.1l-0.4-2.2h0.4L11.2,123.3z"/>
	<path class="st2" d="M9.4,126.2H10l-1.4-5.3l-1.5,5.3h0.6l-0.6,2.2h0.6l-0.6,2.2H10l-0.6-2.2H10L9.4,126.2z"/>
	<path class="st1" d="M46.9,101.4l1.2-3.5l1.3,3.5H46.9z"/>
	<path class="st1" d="M46.9,100l1.2-3.6l1.3,3.6H46.9z"/>
	<path class="st1" d="M46.9,98.5l1.2-3.6l1.3,3.6H46.9z"/>
	<path class="st1" d="M53.8,97.5h0.5l-1.1-3.3L52,97.5h0.5L52,98.9h0.5l-0.5,1.4h2.3l-0.5-1.4h0.5L53.8,97.5z"/>
	<path class="st2" d="M57,93.4h1l-2.2-6.8l-2.2,6.8h0.9l-0.9,2.9h0.9l-0.9,2.9H58l-1-2.9h1L57,93.4z"/>
	<path class="st3" d="M51.7,95.5h0.7l-1.7-6.3l-1.7,6.3h0.7l-0.7,2.6h0.7l-0.7,2.6h3.4l-0.7-2.6h0.7L51.7,95.5z"/>
	<path class="st3" d="M44.5,101.4l1.5-4.3l1.5,4.3H44.5z"/>
	<path class="st3" d="M44.5,99.6l1.5-4.3l1.5,4.3H44.5z"/>
	<path class="st3" d="M44.5,97.8l1.5-4.3l1.5,4.3H44.5z"/>
	<path class="st2" d="M44.3,99.6h0.4l-1-3l-1,3h0.5l-0.5,1.3h0.5l-0.5,1.2h2.1l-0.4-1.2h0.4L44.3,99.6z"/>
	<path class="st0" d="M7.3,129.1h0.5l-1.1-3.8l-1.1,3.8H6l-0.5,1.6H6l-0.5,1.6h2.2l-0.5-1.6h0.5L7.3,129.1z"/>
	<path class="st3" d="M5.5,131.6h0.7l-1.7-7.4l-1.7,7.4h0.7l-0.7,3.1h0.7l-0.7,3.1h3.4l-0.7-3.1h0.7L5.5,131.6z"/>
	<path class="st1" d="M64.3,144.2h63.3C116.6,115,92.7,96.3,66.3,96.3h-2V144.2z"/>
	<path class="st1" d="M64.4,144.2H1.1C12,115,36,96.3,62.4,96.3h2V144.2z"/>
	<path class="st1" d="M75.2,99h0.5l-1.2-3.5L73.3,99h0.5l-0.5,1.5h0.5l-0.5,1.5h2.5l-0.5-1.5h0.5L75.2,99z"/>
	<path class="st1" d="M80.2,97.5h0.5l-1.1-3.2l-1.1,3.2h0.5l-0.5,1.4h0.5l-0.5,1.3h2.3l-0.5-1.3h0.5L80.2,97.5z"/>
	<path class="st2" d="M83.4,93.4h0.9l-2.2-6.9l-2.2,6.9h1l-1,2.8h1l-1,2.9h4.5l-0.9-2.9h0.9L83.4,93.4z"/>
	<path class="st3" d="M78.1,95.4h0.7l-1.7-6.3l-1.7,6.3h0.7L75.5,98h0.7l-0.7,2.6h3.4L78.1,98h0.7L78.1,95.4z"/>
	<path class="st3" d="M73.3,99.3h0.6l-1.5-5.2l-1.5,5.2h0.6l-0.6,2.2h0.6l-0.6,2.2h3l-0.6-2.2h0.6L73.3,99.3z"/>
	<path class="st2" d="M70.7,101.7h0.4l-1-4.6l-1,4.6h0.4l-0.4,1.9h0.4l-0.4,1.9h2.1l-0.4-1.9h0.4L70.7,101.7z"/>
	<path class="st0" d="M60.7,110.7h0.5l-1.2-3.6l-1.2,3.6h0.5l-0.5,1.5h0.5l-0.5,1.5h2.5l-0.5-1.5h0.5L60.7,110.7z"/>
	<path class="st1" d="M65.7,105.9h0.5l-1.1-3.3l-1.1,3.3h0.5l-0.5,1.3h0.5l-0.5,1.4h2.2l-0.5-1.4h0.5L65.7,105.9z"/>
	<path class="st2" d="M68.9,101.7h0.9l-2.2-6.8l-2.2,6.8h1l-1,2.9h1l-1,2.9h4.5l-0.9-2.9h0.9L68.9,101.7z"/>
	<path class="st3" d="M63.6,105.9h0.7l-1.7-6.4l-1.7,6.4h0.7l-0.7,2.7h0.7l-0.7,2.7h3.4l-0.7-2.7h0.7L63.6,105.9z"/>
	<path class="st3" d="M58.8,111h0.6l-1.5-5.3l-1.5,5.3H57l-0.6,2.2H57l-0.6,2.2h3l-0.6-2.2h0.6L58.8,111z"/>
	<path class="st2" d="M56.2,114h0.4l-1-5.4l-1,5.4H55l-0.4,2.3H55l-0.4,2.3h2.1l-0.4-2.3h0.4L56.2,114z"/>
	<path class="st3" d="M54.5,115.7h0.6l-1.5-6.2l-1.5,6.2h0.6l-0.6,2.6h0.6l-0.6,2.6h3l-0.6-2.6h0.6L54.5,115.7z"/>
	<path class="st2" d="M52.3,119h0.4l-1-5.4l-1,5.4H51l-0.4,2.3H51l-0.4,2.2h2.1l-0.4-2.2h0.4L52.3,119z"/>
	<path class="st2" d="M50.5,122h0.6l-1.4-5.3l-1.5,5.3h0.6l-0.6,2.2h0.6l-0.6,2.2h2.9l-0.6-2.2h0.6L50.5,122z"/>
	<path class="st1" d="M87.9,97.2l1.2-3.5l1.3,3.5H87.9z"/>
	<path class="st1" d="M87.9,95.7l1.2-3.6l1.3,3.6H87.9z"/>
	<path class="st1" d="M87.9,94.2l1.2-3.6l1.3,3.6H87.9z"/>
	<path class="st1" d="M94.9,93.3h0.5L94.2,90l-1.1,3.3h0.5l-0.5,1.3h0.5L93.1,96h2.3l-0.5-1.4h0.5L94.9,93.3z"/>
	<path class="st2" d="M98.1,89.1h1l-2.2-6.8l-2.2,6.8h0.9L94.6,92h0.9l-0.9,2.9H99l-1-2.9h1L98.1,89.1z"/>
	<path class="st3" d="M92.8,91.2h0.7l-1.7-6.3l-1.7,6.3h0.7l-0.7,2.6h0.7l-0.7,2.6h3.4l-0.7-2.6h0.7L92.8,91.2z"/>
	<path class="st3" d="M85.6,97.2l1.5-4.3l1.5,4.3H85.6z"/>
	<path class="st3" d="M85.6,95.4l1.5-4.3l1.5,4.3H85.6z"/>
	<path class="st3" d="M85.6,93.5l1.5-4.3l1.5,4.3H85.6z"/>
	<path class="st2" d="M85.4,95.3h0.4l-1-3l-1,3h0.5l-0.5,1.3h0.5l-0.5,1.2h2.1l-0.4-1.2h0.4L85.4,95.3z"/>
	<path class="st0" d="M48.4,124.9h0.5l-1.1-3.8l-1.1,3.8H47l-0.5,1.6H47l-0.5,1.6h2.2l-0.5-1.6h0.5L48.4,124.9z"/>
	<path class="st3" d="M46.5,127.4h0.7l-1.7-7.4l-1.7,7.4h0.7l-0.7,3.1h0.7l-0.7,3.1h3.4l-0.7-3.1h0.7L46.5,127.4z"/>
	<path class="st0" d="M176.5,94.6h-75.3c-26.4,0-50.4,18.7-61.3,47.9h136.6L176.5,94.6L176.5,94.6z"/>
	<path class="st4" d="M95,71.8H93v23.8H95V71.8z"/>
	<path class="st5" d="M95,71.8h-0.6v23.8H95V71.8z"/>
	<path class="st5" d="M95.1,71.9H93v0.4h2.1V71.9z"/>
	<path class="st5" d="M95.1,75H93v0.4h2.1V75z"/>
	<path class="st5" d="M95.1,78.1H93v0.4h2.1V78.1z"/>
	<path class="st5" d="M95.1,81.2H93v0.4h2.1V81.2z"/>
	<path class="st5" d="M95.1,84.3H93v0.4h2.1V84.3z"/>
	<path class="st5" d="M95.1,87.4H93v0.4h2.1V87.4z"/>
	<path class="st5" d="M95.1,90.5H93v0.4h2.1V90.5z"/>
	<path class="st5" d="M95.1,93.5H93V94h2.1V93.5z"/>
	<path class="st6" d="M95.5,71.6h-2.9v0.4h2.9V71.6z"/>
	<path class="st6" d="M95.5,74.7h-2.9v0.4h2.9V74.7z"/>
	<path class="st6" d="M95.5,77.8h-2.9v0.4h2.9V77.8z"/>
	<path class="st6" d="M95.5,80.9h-2.9v0.4h2.9V80.9z"/>
	<path class="st6" d="M95.5,84h-2.9v0.4h2.9V84z"/>
	<path class="st6" d="M95.5,87h-2.9v0.4h2.9V87z"/>
	<path class="st6" d="M95.5,90.1h-2.9v0.4h2.9V90.1z"/>
	<path class="st6" d="M95.5,93.2h-2.9v0.4h2.9V93.2z"/>
	<path class="st5" d="M203.7,77.1h-15.4v15h15.4V77.1z"/>
	<path class="st7" d="M193.3,77.1h-5.1v15h5.1V77.1z"/>
	<path class="st8" d="M189.8,78.5h-0.6v2.8h0.6V78.5z"/>
	<path class="st8" d="M191.8,81.8h-0.6v2.8h0.6V81.8z"/>
	<path class="st9" d="M203.3,76.6c-0.8-4-3.7-7-7.3-7c-3.5,0-6.5,3-7.3,7H203.3z"/>
	<path class="st4" d="M204.6,74h-17.3v3.1h17.3V74z"/>
	<path class="st6" d="M204.7,74h-10.6v3.1h10.6V74z"/>
	<path class="st5" d="M113.1,77.1H97.7v15h15.4V77.1z"/>
	<path class="st7" d="M102.8,77.1h-5.1v15h5.1V77.1z"/>
	<path class="st8" d="M99.2,78.5h-0.6v2.8h0.6V78.5z"/>
	<path class="st8" d="M101.2,81.8h-0.6v2.8h0.6V81.8z"/>
	<path class="st9" d="M112.7,76.6c-0.8-4-3.8-7-7.3-7c-3.5,0-6.5,3-7.3,7H112.7z"/>
	<path class="st4" d="M114,74H96.7v3.1H114V74z"/>
	<path class="st6" d="M114.1,74h-10.5v3.1h10.5V74z"/>
	<path class="st4" d="M197.1,92.9h-96.4v15.3h96.4V92.9z"/>
	<path class="st6" d="M197.1,105.1h-96.4v3.1h96.4V105.1z"/>
	<path class="st6" d="M197.1,92.9h-96.4v2.6h96.4V92.9z"/>
	<path class="st5" d="M106,96.5h-0.6v6.9h0.6V96.5z"/>
	<path class="st5" d="M107.7,96.5h-0.6v6.9h0.6V96.5z"/>
	<path class="st5" d="M109.4,96.5h-0.6v6.9h0.6V96.5z"/>
	<path class="st5" d="M121.7,96.5h-0.6v6.9h0.6V96.5z"/>
	<path class="st5" d="M123.5,96.5h-0.6v6.9h0.6V96.5z"/>
	<path class="st5" d="M125.2,96.5h-0.6v6.9h0.6V96.5z"/>
	<path class="st5" d="M137.5,96.5h-0.6v6.9h0.6V96.5z"/>
	<path class="st5" d="M139.3,96.5h-0.6v6.9h0.6V96.5z"/>
	<path class="st5" d="M141,96.5h-0.6v6.9h0.6V96.5z"/>
	<path class="st5" d="M152.3,96.5h-0.6v6.9h0.6V96.5z"/>
	<path class="st5" d="M154,96.5h-0.6v6.9h0.6V96.5z"/>
	<path class="st5" d="M155.7,96.5h-0.6v6.9h0.6V96.5z"/>
	<path class="st5" d="M168.1,96.5h-0.6v6.9h0.6V96.5z"/>
	<path class="st5" d="M169.8,96.5h-0.6v6.9h0.6V96.5z"/>
	<path class="st5" d="M171.5,96.5h-0.6v6.9h0.6V96.5z"/>
	<path class="st5" d="M183.9,96.5h-0.6v6.9h0.6V96.5z"/>
	<path class="st5" d="M185.6,96.5H185v6.9h0.6V96.5z"/>
	<path class="st5" d="M187.3,96.5h-0.6v6.9h0.6V96.5z"/>
	<path class="st8" d="M101.7,143.6H82.6l14.6-50.7h4.5V143.6z"/>
	<path class="st5" d="M104.4,143.6H85.4L100,92.9h4.5V143.6z"/>
	<path class="st5" d="M104.4,94.3v-1.4h-7.2l-0.4,1.4H104.4z"/>
	<path class="st10" d="M111.3,143.6H88.7l15.8-35.5h6.8V143.6z"/>
	<path class="st11" d="M103.2,113.5c0.8-1.8,1.6-3.5,2.4-5.2"/>
	<path class="st11" d="M99.7,121c0.8-1.8,1.6-3.5,2.4-5.2"/>
	<path class="st11" d="M94.7,132.1c0.4-1,0.9-1.9,1.3-2.9"/>
	<path class="st11" d="M90.2,142c1-2.1,2-4.3,2.9-6.4"/>
	<path class="st11" d="M104.6,113.5c0.8-1.8,1.6-3.5,2.4-5.3"/>
	<path class="st11" d="M100,123.5c1.1-2.4,2.2-4.7,3.2-7.1"/>
	<path class="st11" d="M96,132.3c1.2-2.5,2.3-5.1,3.5-7.6"/>
	<path class="st11" d="M103.9,118.1c1-2.1,2-4.3,2.9-6.4"/>
	<path class="st11" d="M100.1,126.3c0.7-1.6,1.4-3.1,2.1-4.7"/>
	<path class="st11" d="M93,142c0.7-1.5,1.4-3,2.1-4.6"/>
	<path class="st11" d="M104.7,119.3c0.7-1.6,1.4-3.1,2.1-4.7"/>
	<path class="st11" d="M100.7,128c1-2.1,2-4.3,2.9-6.4"/>
	<path class="st11" d="M97.7,134.6c0.5-1.1,1-2.3,1.6-3.4"/>
	<path class="st11" d="M94.3,142c0.4-0.9,0.9-1.9,1.3-2.8"/>
	<path class="st11" d="M102,128.3c0.5-1,0.9-2,1.4-2.9"/>
	<path class="st11" d="M95.8,142c1.6-3.6,3.3-7.2,4.9-10.8"/>
	<path class="st11" d="M99.3,137.3c1.4-3.1,2.8-6.2,4.2-9.3"/>
	<path class="st8" d="M117.2,143.6H98.1l14.6-50.7h4.5V143.6z"/>
	<path class="st5" d="M119.9,143.6h-19.1l14.5-50.7h4.5V143.6z"/>
	<path class="st5" d="M117.2,92.9h-1.8h-2.7l-0.5,1.5h2.8h2.2h2.8v-1.5H117.2z"/>
	<path class="st10" d="M126.8,143.6h-22.6l15.8-35.5h6.8V143.6z"/>
	<path class="st11" d="M118.9,113.5c0.8-1.8,1.6-3.5,2.4-5.2"/>
	<path class="st11" d="M115.4,121c0.8-1.8,1.6-3.5,2.4-5.2"/>
	<path class="st11" d="M110.4,132.1c0.4-1,0.9-1.9,1.3-2.9"/>
	<path class="st11" d="M105.9,142c1-2.1,2-4.3,2.9-6.4"/>
	<path class="st11" d="M120.2,113.5c0.8-1.8,1.6-3.5,2.4-5.3"/>
	<path class="st11" d="M115.7,123.5c1.1-2.4,2.2-4.7,3.2-7.1"/>
	<path class="st11" d="M111.6,132.3c1.2-2.5,2.3-5.1,3.5-7.6"/>
	<path class="st11" d="M119.5,118.1c1-2.1,2-4.3,2.9-6.4"/>
	<path class="st11" d="M115.8,126.3c0.7-1.6,1.4-3.1,2.1-4.7"/>
	<path class="st11" d="M108.6,142c0.7-1.5,1.4-3,2.1-4.6"/>
	<path class="st11" d="M120.4,119.3c0.7-1.6,1.4-3.1,2.1-4.7"/>
	<path class="st11" d="M116.4,128c1-2.1,2-4.3,2.9-6.4"/>
	<path class="st11" d="M113.4,134.6c0.5-1.1,1-2.3,1.6-3.4"/>
	<path class="st11" d="M110,142c0.4-0.9,0.9-1.9,1.3-2.8"/>
	<path class="st11" d="M117.7,128.3c0.5-1,0.9-2,1.3-2.9"/>
	<path class="st11" d="M111.4,142c1.6-3.6,3.3-7.2,4.9-10.8"/>
	<path class="st11" d="M115,137.3c1.4-3.1,2.8-6.2,4.2-9.3"/>
	<path class="st8" d="M132.6,143.6h-19l14.5-50.7h4.5V143.6z"/>
	<path class="st5" d="M135.4,143.6h-19.1l14.6-50.7h4.5V143.6z"/>
	<path class="st5" d="M135.4,94.3v-1.4h-7.3l-0.4,1.4H135.4z"/>
	<path class="st10" d="M142.3,143.6h-22.6l15.8-35.5h6.8V143.6z"/>
	<path class="st11" d="M134.3,113.5c0.8-1.8,1.6-3.5,2.4-5.2"/>
	<path class="st11" d="M130.8,121c0.8-1.8,1.6-3.5,2.4-5.2"/>
	<path class="st11" d="M125.8,132.1c0.4-1,0.9-1.9,1.3-2.9"/>
	<path class="st11" d="M121.3,142c1-2.1,2-4.3,2.9-6.4"/>
	<path class="st11" d="M135.7,113.5c0.8-1.8,1.6-3.5,2.4-5.3"/>
	<path class="st11" d="M131.1,123.5c1.1-2.4,2.2-4.7,3.2-7.1"/>
	<path class="st11" d="M127.1,132.3c1.2-2.5,2.3-5.1,3.5-7.6"/>
	<path class="st11" d="M135,118.1c1-2.1,2-4.3,2.9-6.4"/>
	<path class="st11" d="M131.2,126.3c0.7-1.6,1.4-3.1,2.1-4.7"/>
	<path class="st11" d="M124.1,142c0.7-1.5,1.4-3,2.1-4.6"/>
	<path class="st11" d="M135.8,119.3c0.7-1.6,1.4-3.1,2.1-4.7"/>
	<path class="st11" d="M131.8,128c1-2.1,2-4.3,2.9-6.4"/>
	<path class="st11" d="M128.8,134.6c0.5-1.1,1-2.3,1.6-3.4"/>
	<path class="st11" d="M125.4,142c0.4-0.9,0.9-1.9,1.3-2.8"/>
	<path class="st11" d="M133.1,128.3c0.5-1,0.9-2,1.4-2.9"/>
	<path class="st11" d="M126.8,142c1.6-3.6,3.3-7.2,4.9-10.8"/>
	<path class="st11" d="M130.4,137.3c1.4-3.1,2.8-6.2,4.2-9.3"/>
	<path class="st8" d="M148.1,143.6h-19.1l14.6-50.7h4.5V143.6z"/>
	<path class="st5" d="M150.9,143.6h-19.1l14.6-50.7h4.5V143.6z"/>
	<path class="st5" d="M150.9,94.3v-1.4h-7.3l-0.4,1.4H150.9z"/>
	<path class="st10" d="M157.6,143.6H135l15.8-35.5h6.8V143.6z"/>
	<path class="st11" d="M149.5,113.5c0.8-1.8,1.6-3.5,2.4-5.2"/>
	<path class="st11" d="M146.1,121c0.8-1.8,1.6-3.5,2.4-5.2"/>
	<path class="st11" d="M141,132.1c0.4-1,0.9-1.9,1.3-2.9"/>
	<path class="st11" d="M136.5,142c1-2.1,2-4.3,2.9-6.4"/>
	<path class="st11" d="M150.9,113.5c0.8-1.8,1.6-3.5,2.4-5.3"/>
	<path class="st11" d="M146.3,123.5c1.1-2.4,2.2-4.7,3.2-7.1"/>
	<path class="st11" d="M142.3,132.3c1.2-2.5,2.3-5.1,3.5-7.6"/>
	<path class="st11" d="M150.2,118.1c1-2.1,2-4.3,2.9-6.4"/>
	<path class="st11" d="M146.4,126.3c0.7-1.6,1.4-3.1,2.1-4.7"/>
	<path class="st11" d="M139.3,142c0.7-1.5,1.4-3,2.1-4.6"/>
	<path class="st11" d="M151,119.3c0.7-1.6,1.4-3.1,2.1-4.7"/>
	<path class="st11" d="M147,128c1-2.1,2-4.3,2.9-6.4"/>
	<path class="st11" d="M144,134.6c0.5-1.1,1-2.3,1.6-3.4"/>
	<path class="st11" d="M140.6,142c0.4-0.9,0.9-1.9,1.3-2.8"/>
	<path class="st11" d="M148.3,128.3c0.5-1,0.9-2,1.4-2.9"/>
	<path class="st11" d="M142.1,142c1.6-3.6,3.3-7.2,4.9-10.8"/>
	<path class="st11" d="M145.6,137.3c1.4-3.1,2.8-6.2,4.2-9.3"/>
	<path class="st8" d="M163.5,143.6h-19.1L159,92.9h4.5V143.6z"/>
	<path class="st5" d="M166.2,143.6h-19.1l14.6-50.7h4.5V143.6z"/>
	<path class="st5" d="M163.5,92.9h-1.7H159l-0.4,1.5h2.7h2.2h2.8v-1.5H163.5z"/>
	<path class="st10" d="M173.1,143.6h-22.6l15.8-35.5h6.8V143.6z"/>
	<path class="st11" d="M165.2,113.5c0.8-1.8,1.6-3.5,2.4-5.2"/>
	<path class="st11" d="M161.7,121c0.8-1.8,1.6-3.5,2.4-5.2"/>
	<path class="st11" d="M156.7,132.1c0.4-1,0.9-1.9,1.3-2.9"/>
	<path class="st11" d="M152.2,142c1-2.1,2-4.3,2.9-6.4"/>
	<path class="st11" d="M166.5,113.5c0.8-1.8,1.6-3.5,2.4-5.3"/>
	<path class="st11" d="M162,123.5c1.1-2.4,2.2-4.7,3.2-7.1"/>
	<path class="st11" d="M157.9,132.3c1.2-2.5,2.3-5.1,3.5-7.6"/>
	<path class="st11" d="M165.8,118.1c1-2.1,2-4.3,2.9-6.4"/>
	<path class="st11" d="M162.1,126.3c0.7-1.6,1.4-3.1,2.1-4.7"/>
	<path class="st11" d="M154.9,142c0.7-1.5,1.4-3,2.1-4.6"/>
	<path class="st11" d="M166.7,119.3c0.7-1.6,1.4-3.1,2.1-4.7"/>
	<path class="st11" d="M162.7,128c1-2.1,2-4.3,2.9-6.4"/>
	<path class="st11" d="M159.7,134.6c0.5-1.1,1-2.3,1.6-3.4"/>
	<path class="st11" d="M156.3,142c0.4-0.9,0.9-1.9,1.3-2.8"/>
	<path class="st11" d="M164,128.3c0.5-1,0.9-2,1.4-2.9"/>
	<path class="st11" d="M157.7,142c1.6-3.6,3.3-7.2,4.9-10.8"/>
	<path class="st11" d="M161.3,137.3c1.4-3.1,2.8-6.2,4.2-9.3"/>
	<path class="st8" d="M179,143.6h-19.1l14.5-50.7h4.5V143.6z"/>
	<path class="st5" d="M181.7,143.6h-19l14.5-50.7h4.5V143.6z"/>
	<path class="st5" d="M181.7,94.3v-1.4h-7.3l-0.4,1.4H181.7z"/>
	<path class="st10" d="M188.6,143.6H166l15.8-35.5h6.8V143.6z"/>
	<path class="st11" d="M180.6,113.5c0.8-1.8,1.6-3.5,2.4-5.2"/>
	<path class="st11" d="M177.2,121c0.8-1.8,1.6-3.5,2.4-5.2"/>
	<path class="st11" d="M172.1,132.1c0.4-1,0.9-1.9,1.3-2.9"/>
	<path class="st11" d="M167.6,142c1-2.1,2-4.3,2.9-6.4"/>
	<path class="st11" d="M182,113.5c0.8-1.8,1.6-3.5,2.4-5.3"/>
	<path class="st11" d="M177.4,123.5c1.1-2.4,2.2-4.7,3.2-7.1"/>
	<path class="st11" d="M173.4,132.3c1.2-2.5,2.3-5.1,3.5-7.6"/>
	<path class="st11" d="M181.3,118.1c1-2.1,2-4.3,2.9-6.4"/>
	<path class="st11" d="M177.5,126.3c0.7-1.6,1.4-3.1,2.1-4.7"/>
	<path class="st11" d="M170.4,142c0.7-1.5,1.4-3,2.1-4.6"/>
	<path class="st11" d="M182.1,119.3c0.7-1.6,1.4-3.1,2.1-4.7"/>
	<path class="st11" d="M178.1,128c1-2.1,2-4.3,2.9-6.4"/>
	<path class="st11" d="M175.1,134.6c0.5-1.1,1-2.3,1.6-3.4"/>
	<path class="st11" d="M171.8,142c0.4-0.9,0.9-1.9,1.3-2.8"/>
	<path class="st11" d="M179.4,128.3c0.5-1,0.9-2,1.4-2.9"/>
	<path class="st11" d="M173.2,142c1.6-3.6,3.3-7.2,4.9-10.8"/>
	<path class="st11" d="M176.7,137.3c1.4-3.1,2.8-6.2,4.2-9.3"/>
	<path class="st8" d="M194.4,143.6h-19.1l14.6-50.7h4.5V143.6z"/>
	<path class="st5" d="M209.9,143.6h-31.8l14.6-50.7h17.2V143.6z"/>
	<path class="st5" d="M197.2,94.3v-1.4h-7.2l-0.4,1.4H197.2z"/>
	<path class="st9" d="M193.8,89.1H95v4h98.9V89.1z"/>
	<path class="st6" d="M193.8,93h17.5v-4h-17.5V93z"/>
	<path class="st4" d="M209.6,70.2h-2.1v24.7h2.1V70.2z"/>
	<path class="st5" d="M209.6,70.2H209v24.7h0.6V70.2z"/>
	<path class="st5" d="M209.7,70.3h-2.2v0.5h2.2V70.3z"/>
	<path class="st5" d="M209.7,73.5h-2.2V74h2.2V73.5z"/>
	<path class="st5" d="M209.7,76.7h-2.2v0.5h2.2V76.7z"/>
	<path class="st5" d="M209.7,79.9h-2.2v0.5h2.2V79.9z"/>
	<path class="st5" d="M209.7,83.1h-2.2v0.5h2.2V83.1z"/>
	<path class="st5" d="M209.7,86.3h-2.2v0.5h2.2V86.3z"/>
	<path class="st5" d="M209.7,89.5h-2.2V90h2.2V89.5z"/>
	<path class="st5" d="M209.7,92.7h-2.2v0.5h2.2V92.7z"/>
	<path class="st6" d="M210.1,70H207v0.5h3.1V70z"/>
	<path class="st6" d="M210.1,73.2H207v0.5h3.1V73.2z"/>
	<path class="st6" d="M210.1,76.3H207v0.5h3.1V76.3z"/>
	<path class="st6" d="M210.1,79.6H207V80h3.1V79.6z"/>
	<path class="st6" d="M210.1,82.8H207v0.5h3.1V82.8z"/>
	<path class="st6" d="M210.1,86H207v0.5h3.1V86z"/>
	<path class="st6" d="M210.1,89.2H207v0.5h3.1V89.2z"/>
	<path class="st6" d="M210.1,92.3H207v0.5h3.1V92.3z"/>
	<path class="st12" d="M187.8,142.5H1.3l-1,44.9h187.5V142.5z"/>
	<path class="st12" d="M83.2,143.9c1.1,0,2.1-1.2,2.1-2.5c-0.1-1.3-0.9-2.5-2.1-2.5c-1.1,0-2.1,1.2-2.1,2.5
		C81.2,142.8,82.1,143.9,83.2,143.9z"/>
	<path class="st12" d="M85.8,145.7c1.1,0,2.2-1.2,2.2-2.6c-0.1-1.4-1-2.6-2.2-2.6c-1.1,0-2.2,1.2-2.2,2.6
		C83.6,144.5,84.5,145.7,85.8,145.7z"/>
	<path class="st12" d="M88,142.9c0.7,0,1.4-0.8,1.4-1.7c0-0.9-0.6-1.7-1.4-1.7c-0.7,0-1.4,0.8-1.4,1.7
		C86.7,142.1,87.2,142.9,88,142.9z"/>
	<path class="st12" d="M88.5,146.1c1,0,2-1.1,1.9-2.4c-0.1-1.3-0.8-2.4-1.9-2.4c-1,0-2,1.1-1.9,2.4
		C86.6,145.1,87.4,146.1,88.5,146.1z"/>
	<path class="st12" d="M91,145.4c1,0,1.9-1,1.8-2.2c0-1.2-0.8-2.2-1.8-2.2c-1,0-1.9,1-1.8,2.2C89.2,144.3,90,145.4,91,145.4z"/>
	<path class="st12" d="M95.8,141.1c0-0.2,0-0.4-0.1-0.7c0.2-0.5,0.2-1,0-1.6l-0.1-0.1c-0.4-1-1.6-1-2.2-0.3
		c-0.6,0.7-0.6,2.1,0.2,2.5v0c-0.2-0.1-0.5-0.2-0.8-0.2c-2.6,0-2.7,5,0,5c0.8,0,1.3-0.4,1.7-1c0.2,0.1,0.5,0.2,0.7,0.2
		c0.9,0,1.7-0.9,1.6-2C97,142.1,96.5,141.4,95.8,141.1z"/>
	<path class="st12" d="M99.8,144.1c0,0,0-0.1,0-0.1c-0.3-1.5-2.3-1.5-2.6,0c0,0,0,0.1,0,0.1c-0.2,1,0.4,2.1,1.3,2.1
		C99.4,146.2,100,145.1,99.8,144.1z"/>
	<path class="st12" d="M97.7,143.7c0.9,0,1.8-1,1.8-2.1c0-1.2-0.8-2.1-1.8-2.1c-0.9,0-1.8,1-1.8,2.1C96,142.7,96.7,143.7,97.7,143.7
		z"/>
	<path class="st12" d="M97.3,146.2c0.5,0.1,1-0.3,1.4-0.7c0.6-0.6,0.6-1.9,0.3-2.6c-0.4-0.7-1.3-1.3-2-1c0,0-0.1,0-0.1,0
		c-0.5,0.3-0.9,0.6-1.1,1.2c-0.2,0.6-0.2,1.3,0.1,1.9C96.2,145.8,96.7,146.1,97.3,146.2z"/>
	<path class="st12" d="M99.2,144.8c0.7,0,1.4-0.8,1.4-1.7c0-0.9-0.6-1.7-1.4-1.7c-0.7,0-1.4,0.8-1.4,1.7
		C97.8,144,98.4,144.8,99.2,144.8z"/>
	<path class="st12" d="M100.1,143.8c1.1,0,2.1-1.2,2.1-2.5c-0.1-1.3-0.9-2.5-2.1-2.5c-1.1,0-2.1,1.2-2.1,2.5
		C98.1,142.6,99,143.8,100.1,143.8z"/>
	<path class="st12" d="M102.7,145.5c1.1,0,2.2-1.2,2.2-2.6c-0.1-1.4-1-2.6-2.2-2.6c-1.1,0-2.2,1.2-2.2,2.6
		C100.5,144.3,101.4,145.5,102.7,145.5z"/>
	<path class="st12" d="M104.9,142.7c0.7,0,1.4-0.8,1.4-1.7s-0.6-1.7-1.4-1.7c-0.7,0-1.4,0.8-1.4,1.7
		C103.6,142,104.1,142.7,104.9,142.7z"/>
	<path class="st12" d="M105.4,146c1,0,2-1.1,1.9-2.4c-0.1-1.3-0.8-2.4-1.9-2.4c-1,0-2,1.1-1.9,2.4C103.5,144.9,104.3,146,105.4,146z
		"/>
	<path class="st12" d="M107.9,145.2c1,0,1.9-1,1.8-2.2c0-1.2-0.8-2.2-1.8-2.2c-1,0-1.9,1-1.8,2.2
		C106.1,144.2,106.9,145.2,107.9,145.2z"/>
	<path class="st12" d="M112.7,141c0-0.2,0-0.4-0.1-0.7c0.2-0.5,0.2-1,0-1.6l-0.1-0.1c-0.4-1-1.6-1-2.2-0.3c-0.6,0.7-0.6,2.1,0.2,2.5
		v0c-0.2-0.1-0.5-0.2-0.8-0.2c-2.6,0-2.7,5,0,5c0.8,0,1.3-0.4,1.7-1c0.2,0.1,0.5,0.2,0.7,0.2c0.9,0,1.7-0.9,1.6-2
		C113.9,142,113.4,141.2,112.7,141z"/>
	<path class="st12" d="M116.7,143.9c0,0,0-0.1,0-0.1c-0.3-1.5-2.3-1.5-2.6,0c0,0,0,0.1,0,0.1c-0.2,1,0.4,2.1,1.3,2.1
		C116.3,146,116.9,144.9,116.7,143.9z"/>
	<path class="st12" d="M114.6,143.5c0.9,0,1.8-1,1.8-2.1c0-1.2-0.8-2.1-1.8-2.1c-0.9,0-1.8,1-1.8,2.1
		C112.9,142.6,113.6,143.5,114.6,143.5z"/>
	<path class="st12" d="M114.3,146c0.5,0.1,1-0.3,1.4-0.7c0.6-0.6,0.6-1.9,0.3-2.6c-0.4-0.7-1.3-1.3-2-1c0,0,0,0-0.1,0
		c-0.5,0.3-0.9,0.6-1.1,1.2c-0.2,0.6-0.2,1.3,0.1,1.9C113.1,145.6,113.6,145.9,114.3,146z"/>
	<path class="st12" d="M116.1,144.6c0.7,0,1.4-0.8,1.4-1.7c0-0.9-0.6-1.7-1.4-1.7c-0.7,0-1.4,0.8-1.4,1.7
		C114.7,143.8,115.3,144.6,116.1,144.6z"/>
	<path class="st12" d="M114.8,143.8c1.1,0,2.1-1.2,2.1-2.5c-0.1-1.3-0.9-2.5-2.1-2.5c-1.1,0-2.1,1.2-2.1,2.5
		C112.8,142.6,113.7,143.8,114.8,143.8z"/>
	<path class="st12" d="M117.4,145.5c1.1,0,2.2-1.2,2.2-2.6c-0.1-1.4-1-2.6-2.2-2.6c-1.1,0-2.2,1.2-2.2,2.6
		C115.2,144.3,116.1,145.5,117.4,145.5z"/>
	<path class="st12" d="M119.6,142.7c0.7,0,1.4-0.8,1.4-1.7c0-0.9-0.6-1.7-1.4-1.7c-0.7,0-1.4,0.8-1.4,1.7
		C118.2,142,118.8,142.7,119.6,142.7z"/>
	<path class="st12" d="M120.1,146c1,0,2-1.1,1.9-2.4c-0.1-1.3-0.8-2.4-1.9-2.4c-1,0-2,1.1-1.9,2.4C118.2,144.9,119,146,120.1,146z"
		/>
	<path class="st12" d="M122.6,145.2c1,0,1.9-1,1.8-2.2c0-1.2-0.8-2.2-1.8-2.2c-1,0-1.9,1-1.8,2.2
		C120.8,144.2,121.6,145.2,122.6,145.2z"/>
	<path class="st12" d="M127.4,141c0-0.2,0-0.4-0.1-0.7c0.2-0.5,0.2-1,0-1.6l-0.1-0.1c-0.4-1-1.6-1-2.2-0.3c-0.6,0.7-0.6,2.1,0.2,2.5
		v0c-0.2-0.1-0.5-0.2-0.8-0.2c-2.6,0-2.7,5,0,5c0.8,0,1.3-0.4,1.7-1c0.2,0.1,0.5,0.2,0.7,0.2c0.9,0,1.7-0.9,1.6-2
		C128.5,142,128.1,141.2,127.4,141z"/>
	<path class="st12" d="M131.4,143.9c0,0,0-0.1,0-0.1c-0.3-1.5-2.3-1.5-2.6,0c0,0,0,0.1,0,0.1c-0.2,1,0.4,2.1,1.3,2.1
		C131,146,131.6,144.9,131.4,143.9z"/>
	<path class="st12" d="M129.3,143.5c0.9,0,1.8-1,1.8-2.1c0-1.2-0.8-2.1-1.8-2.1c-0.9,0-1.8,1-1.8,2.1
		C127.6,142.6,128.3,143.5,129.3,143.5z"/>
	<path class="st12" d="M128.9,146c0.5,0.1,1-0.3,1.4-0.7c0.6-0.6,0.6-1.9,0.3-2.6c-0.4-0.7-1.3-1.3-2-1c0,0-0.1,0-0.1,0
		c-0.5,0.3-0.9,0.6-1.1,1.2c-0.2,0.6-0.2,1.3,0.1,1.9C127.8,145.6,128.3,145.9,128.9,146z"/>
	<path class="st12" d="M130.8,144.6c0.7,0,1.4-0.8,1.4-1.7c0-0.9-0.6-1.7-1.4-1.7c-0.7,0-1.4,0.8-1.4,1.7
		C129.4,143.8,130,144.6,130.8,144.6z"/>
	<path class="st12" d="M130.2,143.9c1.1,0,2.1-1.2,2.1-2.5c-0.1-1.3-0.9-2.5-2.1-2.5c-1.1,0-2.1,1.2-2.1,2.5
		C128.2,142.8,129.1,143.9,130.2,143.9z"/>
	<path class="st12" d="M132.8,145.7c1.1,0,2.2-1.2,2.2-2.6c-0.1-1.4-1-2.6-2.2-2.6c-1.1,0-2.2,1.2-2.2,2.6
		C130.7,144.5,131.6,145.7,132.8,145.7z"/>
	<path class="st12" d="M135.1,142.9c0.7,0,1.4-0.8,1.4-1.7c0-0.9-0.6-1.7-1.4-1.7c-0.7,0-1.4,0.8-1.4,1.7
		C133.7,142.1,134.3,142.9,135.1,142.9z"/>
	<path class="st12" d="M135.5,146.1c1,0,2-1.1,1.9-2.4c-0.1-1.3-0.8-2.4-1.9-2.4c-1,0-2,1.1-1.9,2.4
		C133.6,145.1,134.4,146.1,135.5,146.1z"/>
	<path class="st12" d="M138,145.4c1,0,1.9-1,1.8-2.2c0-1.2-0.8-2.2-1.8-2.2c-1,0-1.9,1-1.8,2.2C136.2,144.3,137,145.4,138,145.4z"/>
	<path class="st12" d="M142.9,141.1c0-0.2,0-0.4-0.1-0.7c0.2-0.5,0.2-1,0-1.6l-0.1-0.1c-0.4-1-1.6-1-2.2-0.3
		c-0.6,0.7-0.6,2.1,0.2,2.5v0c-0.2-0.1-0.5-0.2-0.8-0.2c-2.6,0-2.7,5,0,5c0.8,0,1.3-0.4,1.7-1c0.2,0.1,0.5,0.2,0.7,0.2
		c0.9,0,1.7-0.9,1.6-2C144,142.1,143.5,141.4,142.9,141.1z"/>
	<path class="st12" d="M146.9,144.1c0,0,0-0.1,0-0.1c-0.3-1.5-2.3-1.5-2.6,0c0,0,0,0.1,0,0.1c-0.2,1,0.4,2.1,1.3,2.1
		C146.5,146.2,147,145.1,146.9,144.1z"/>
	<path class="st12" d="M144.7,143.7c0.9,0,1.8-1,1.8-2.1c0-1.2-0.8-2.1-1.8-2.1c-0.9,0-1.8,1-1.8,2.1
		C143,142.7,143.7,143.7,144.7,143.7z"/>
	<path class="st12" d="M144.4,146.2c0.5,0.1,1-0.3,1.4-0.7c0.6-0.6,0.6-1.9,0.3-2.6c-0.4-0.7-1.3-1.3-2-1c0,0-0.1,0-0.1,0
		c-0.5,0.3-0.9,0.6-1.1,1.2c-0.2,0.6-0.2,1.3,0.1,1.9C143.3,145.8,143.7,146.1,144.4,146.2z"/>
	<path class="st12" d="M146.2,144.8c0.7,0,1.4-0.8,1.4-1.7c0-0.9-0.6-1.7-1.4-1.7c-0.7,0-1.4,0.8-1.4,1.7
		C144.9,144,145.4,144.8,146.2,144.8z"/>
	<path class="st12" d="M147.1,143.8c1.1,0,2.1-1.2,2.1-2.5c-0.1-1.3-0.9-2.5-2.1-2.5c-1.1,0-2.1,1.2-2.1,2.5
		C145.1,142.6,146,143.8,147.1,143.8z"/>
	<path class="st12" d="M149.7,145.5c1.1,0,2.2-1.2,2.2-2.6s-1-2.6-2.2-2.6c-1.1,0-2.2,1.2-2.2,2.6
		C147.6,144.3,148.5,145.5,149.7,145.5z"/>
	<path class="st12" d="M151.9,142.7c0.7,0,1.4-0.8,1.4-1.7c0-0.9-0.6-1.7-1.4-1.7c-0.7,0-1.4,0.8-1.4,1.7
		C150.6,142,151.2,142.7,151.9,142.7z"/>
	<path class="st12" d="M152.4,146c1,0,2-1.1,1.9-2.4c-0.1-1.3-0.8-2.4-1.9-2.4c-1,0-2,1.1-1.9,2.4C150.5,144.9,151.3,146,152.4,146z
		"/>
	<path class="st12" d="M154.9,145.2c1,0,1.9-1,1.8-2.2c0-1.2-0.8-2.2-1.8-2.2c-1,0-1.9,1-1.8,2.2
		C153.1,144.2,153.9,145.2,154.9,145.2z"/>
	<path class="st12" d="M159.8,141c0-0.2,0-0.4-0.1-0.7c0.2-0.5,0.2-1,0-1.6l-0.1-0.1c-0.4-1-1.6-1-2.2-0.3c-0.6,0.7-0.6,2.1,0.2,2.5
		v0c-0.2-0.1-0.5-0.2-0.8-0.2c-2.6,0-2.7,5,0,5c0.8,0,1.3-0.4,1.7-1c0.2,0.1,0.5,0.2,0.7,0.2c0.9,0,1.7-0.9,1.6-2
		C160.9,142,160.4,141.2,159.8,141z"/>
	<path class="st12" d="M163.8,143.9c0,0,0-0.1,0-0.1c-0.3-1.5-2.3-1.5-2.6,0c0,0,0,0.1,0,0.1c-0.2,1,0.4,2.1,1.3,2.1
		C163.4,146,163.9,144.9,163.8,143.9z"/>
	<path class="st12" d="M161.6,143.5c0.9,0,1.8-1,1.8-2.1c0-1.2-0.8-2.1-1.8-2.1c-0.9,0-1.8,1-1.8,2.1
		C159.9,142.6,160.6,143.5,161.6,143.5z"/>
	<path class="st12" d="M161.3,146c0.5,0.1,1-0.3,1.3-0.7c0.6-0.6,0.6-1.9,0.3-2.6c-0.4-0.7-1.3-1.3-2-1c0,0-0.1,0-0.1,0
		c-0.5,0.3-0.9,0.6-1.1,1.2c-0.2,0.6-0.2,1.3,0.1,1.9C160.2,145.6,160.6,145.9,161.3,146z"/>
	<path class="st12" d="M163.1,144.6c0.7,0,1.4-0.8,1.4-1.7c0-0.9-0.6-1.7-1.4-1.7c-0.7,0-1.4,0.8-1.4,1.7
		C161.8,143.8,162.3,144.6,163.1,144.6z"/>
	<path class="st12" d="M161.8,143.8c1.1,0,2.1-1.2,2.1-2.5c-0.1-1.3-0.9-2.5-2.1-2.5c-1.1,0-2.1,1.2-2.1,2.5
		C159.8,142.6,160.7,143.8,161.8,143.8z"/>
	<path class="st12" d="M164.4,145.5c1.1,0,2.2-1.2,2.2-2.6c-0.1-1.4-1-2.6-2.2-2.6c-1.1,0-2.2,1.2-2.2,2.6
		C162.2,144.3,163.1,145.5,164.4,145.5z"/>
	<path class="st12" d="M166.6,142.7c0.7,0,1.4-0.8,1.4-1.7c0-0.9-0.6-1.7-1.4-1.7c-0.7,0-1.4,0.8-1.4,1.7
		C165.3,142,165.8,142.7,166.6,142.7z"/>
	<path class="st12" d="M167.1,146c1,0,2-1.1,1.9-2.4c-0.1-1.3-0.8-2.4-1.9-2.4c-1,0-2,1.1-1.9,2.4C165.2,144.9,166,146,167.1,146z"
		/>
	<path class="st12" d="M169.6,145.2c1,0,1.9-1,1.8-2.2c0-1.2-0.8-2.2-1.8-2.2c-1,0-1.9,1-1.8,2.2
		C167.8,144.2,168.6,145.2,169.6,145.2z"/>
	<path class="st12" d="M174.4,141c0-0.2,0-0.4-0.1-0.7c0.2-0.5,0.2-1,0-1.6l-0.1-0.1c-0.4-1-1.6-1-2.2-0.3c-0.6,0.7-0.6,2.1,0.2,2.5
		v0c-0.2-0.1-0.5-0.2-0.8-0.2c-2.6,0-2.7,5,0,5c0.8,0,1.3-0.4,1.7-1c0.2,0.1,0.5,0.2,0.7,0.2c0.9,0,1.7-0.9,1.6-2
		C175.6,142,175.1,141.2,174.4,141z"/>
	<path class="st12" d="M178.4,143.9c0,0,0-0.1,0-0.1c-0.3-1.5-2.3-1.5-2.6,0c0,0,0,0.1,0,0.1c-0.2,1,0.4,2.1,1.3,2.1
		C178,146,178.6,144.9,178.4,143.9z"/>
	<path class="st12" d="M176.3,143.5c0.9,0,1.8-1,1.8-2.1c0-1.2-0.8-2.1-1.8-2.1c-0.9,0-1.8,1-1.8,2.1
		C174.6,142.6,175.3,143.5,176.3,143.5z"/>
	<path class="st12" d="M176,146c0.5,0.1,1-0.3,1.4-0.7c0.6-0.6,0.6-1.9,0.3-2.6c-0.4-0.7-1.3-1.3-2-1c0,0-0.1,0-0.1,0
		c-0.5,0.3-0.9,0.6-1.1,1.2c-0.2,0.6-0.2,1.3,0.1,1.9C174.8,145.6,175.3,145.9,176,146z"/>
	<path class="st12" d="M177.8,144.6c0.7,0,1.4-0.8,1.4-1.7c0-0.9-0.6-1.7-1.4-1.7c-0.7,0-1.4,0.8-1.4,1.7
		C176.5,143.8,177,144.6,177.8,144.6z"/>
	<path class="st11" d="M155.8,146.3l8.9,0"/>
	<path class="st11" d="M108.5,146.4h26.7"/>
	<path class="st11" d="M87,146.4h7.8"/>
	<path class="st11" d="M47.1,146.2l33.8,0.1"/>
	<path class="st11" d="M25.5,146.4c3.4-0.2,7.8-0.2,11.3-0.1"/>
	<path class="st11" d="M79.5,150.1l65.3,0.1"/>
	<path class="st11" d="M63.6,150l10.9,0.1"/>
	<path class="st11" d="M25.5,150c9.3-0.1,19.2-0.1,28.3,0"/>
	<path class="st11" d="M162.1,154l14.4-0.2"/>
	<path class="st11" d="M135,154.1l12.2,0"/>
	<path class="st11" d="M103,154l22.6,0.1"/>
	<path class="st11" d="M85.1,153.8l10.8,0.1"/>
	<path class="st11" d="M28.2,154l44.9-0.2"/>
	<path class="st11" d="M109.4,157.9l41-0.1"/>
	<path class="st11" d="M43.9,157.6l41.1,0.3"/>
	<path class="st11" d="M25.5,157.6c2.3,0,5.4,0,7.7,0"/>
	<path class="st11" d="M158.7,161.2l10.5,0.1"/>
	<path class="st11" d="M117.9,161.1l10,0"/>
	<path class="st11" d="M67.3,161.1l26.1-0.1"/>
	<path class="st11" d="M38.9,161.4l19.1-0.2"/>
	<path class="st11" d="M25.5,161.4c1.7,0,4.2,0,5.9,0"/>
	<path class="st11" d="M166.5,165.1l10,0.1"/>
	<path class="st11" d="M124.3,164.9l14.4,0"/>
	<path class="st11" d="M106.6,164.9h10.5"/>
	<path class="st11" d="M76,165.1l17.3-0.1"/>
	<path class="st11" d="M61.3,165.2l9.2-0.1"/>
	<path class="st11" d="M32.9,164.9l18.8,0.3"/>
	<path class="st11" d="M159.1,168.9l17.3,0.1"/>
	<path class="st11" d="M107.3,168.7h28.4"/>
	<path class="st11" d="M82.8,168.8l18.5,0"/>
	<path class="st11" d="M54.4,169l8.7,0"/>
	<path class="st11" d="M27.4,168.8l17.1,0.2"/>
	<path class="st11" d="M139.8,172.6l22.7,0.1"/>
	<path class="st11" d="M111.5,172.6h18.9"/>
	<path class="st11" d="M93.4,172.6l12.1,0"/>
	<path class="st11" d="M42.9,172.8l26.1-0.1"/>
	<path class="st11" d="M25.5,172.8c1.8,0,4.3,0,6.1,0"/>
	<path class="st11" d="M163.6,176.5l5.6,0"/>
	<path class="st11" d="M144.7,176.5h3.9"/>
	<path class="st11" d="M128.6,176.5h7.8"/>
	<path class="st11" d="M82.4,176.6l6.1,0"/>
	<path class="st11" d="M42.3,176.5l19,0.1"/>
	<path class="st11" d="M4.8,146.3l8.9,0"/>
	<path class="st11" d="M240.1,146.4H14.8"/>
	<path class="st11" d="M218.6,146.4h7.8"/>
	<path class="st11" d="M178.7,146.2l33.8,0.1"/>
	<path class="st11" d="M157.2,146.4c3.4-0.2,7.8-0.2,11.3-0.1"/>
	<path class="st11" d="M211.1,150.1"/>
	<path class="st11" d="M195.2,150l10.9,0.1"/>
	<path class="st11" d="M157.2,150c9.3-0.1,19.2-0.1,28.3,0"/>
	<path class="st11" d="M11,154l14.4-0.2"/>
	<path class="st11" d="M14.6,154.1"/>
	<path class="st11" d="M234.7,154L5.2,154.1"/>
	<path class="st11" d="M216.8,153.8l10.8,0.1"/>
	<path class="st11" d="M159.8,154l44.9-0.2"/>
	<path class="st11" d="M241,157.9L1.3,157.8"/>
	<path class="st11" d="M175.6,157.6l41.1,0.3"/>
	<path class="st11" d="M157.2,157.6c2.3,0,5.4,0,7.7,0"/>
	<path class="st11" d="M7.7,161.2l10.5,0.1"/>
	<path class="st11" d="M1.5,161.1l6,0"/>
	<path class="st11" d="M198.9,161.1l26.1-0.1"/>
	<path class="st11" d="M170.5,161.4l19.1-0.2"/>
	<path class="st11" d="M157.2,161.4c1.7,0,4.2,0,5.9,0"/>
	<path class="st11" d="M15.4,165.1l10,0.1"/>
	<path class="st11" d="M3.9,164.9l14.4,0"/>
	<path class="st11" d="M238.2,164.9H0.7"/>
	<path class="st11" d="M207.6,165.1l17.3-0.1"/>
	<path class="st11" d="M192.9,165.2l9.2-0.1"/>
	<path class="st11" d="M164.6,164.9l18.8,0.3"/>
	<path class="st11" d="M8.1,168.9l17.3,0.1"/>
	<path class="st11" d="M238.9,168.7H15.3"/>
	<path class="st11" d="M214.5,168.8l18.5,0"/>
	<path class="st11" d="M186,169l8.7,0"/>
	<path class="st11" d="M159.1,168.8l17.1,0.2"/>
	<path class="st11" d="M19.4,172.6l-7.9,0.1"/>
	<path class="st11" d="M243.2,172.6H10"/>
	<path class="st11" d="M225.1,172.6l12.1,0"/>
	<path class="st11" d="M174.5,172.8l26.1-0.1"/>
	<path class="st11" d="M157.2,172.8c1.8,0,4.3,0,6.1,0"/>
	<path class="st11" d="M12.6,176.5l5.6,0"/>
	<path class="st11" d="M8.2,176.5h7.8"/>
	<path class="st11" d="M214,176.6l6.1,0"/>
	<path class="st11" d="M174,176.5l19,0.1"/>
	<path class="st11" d="M128.7,146.3l8.9,0"/>
	<path class="st11" d="M81.3,146.4h26.7"/>
	<path class="st11" d="M59.8,146.4h7.8"/>
	<path class="st11" d="M19.9,146.2l33.8,0.1"/>
	<path class="st11" d="M0.4,146.4c3.4-0.2,5.8-0.2,9.3-0.1"/>
	<path class="st11" d="M52.3,150.1l65.3,0.1"/>
	<path class="st11" d="M36.4,150l10.9,0.1"/>
	<path class="st11" d="M0.4,150c9.3-0.1,17.2-0.1,26.3,0"/>
	<path class="st11" d="M134.9,154l14.4-0.2"/>
	<path class="st11" d="M107.8,154.1l12.2,0"/>
	<path class="st11" d="M75.9,154l22.6,0.1"/>
	<path class="st11" d="M58,153.8l10.8,0.1"/>
	<path class="st11" d="M3,154l42.9-0.2"/>
	<path class="st11" d="M82.2,157.9l41-0.1"/>
	<path class="st11" d="M16.8,157.6l41.1,0.3"/>
	<path class="st11" d="M0.4,157.6c2.3,0,3.4,0,5.7,0"/>
	<path class="st11" d="M131.6,161.2l10.5,0.1"/>
	<path class="st11" d="M90.7,161.1l10,0"/>
	<path class="st11" d="M40.1,161.1l26.1-0.1"/>
	<path class="st11" d="M11.7,161.4l19.1-0.2"/>
	<path class="st11" d="M0.4,161.4c1.7,0,2.2,0,3.9,0"/>
	<path class="st11" d="M139.3,165.1l10,0.1"/>
	<path class="st11" d="M97.1,164.9l14.4,0"/>
	<path class="st11" d="M79.4,164.9h10.5"/>
	<path class="st11" d="M48.8,165.1l17.3-0.1"/>
	<path class="st11" d="M34.1,165.2l9.2-0.1"/>
	<path class="st11" d="M5.7,164.9l18.8,0.3"/>
	<path class="st11" d="M132,168.9l17.3,0.1"/>
	<path class="st11" d="M80.1,168.7h28.4"/>
	<path class="st11" d="M55.7,168.8l18.5,0"/>
	<path class="st11" d="M27.2,169l8.7,0"/>
	<path class="st11" d="M2.3,168.8l15.1,0.2"/>
	<path class="st11" d="M112.6,172.6l22.7,0.1"/>
	<path class="st11" d="M84.3,172.6h18.9"/>
	<path class="st11" d="M66.2,172.6l12.1,0"/>
	<path class="st11" d="M15.7,172.8l26.1-0.1"/>
	<path class="st11" d="M0.4,172.8c1.8,0,2.3,0,4.1,0"/>
	<path class="st11" d="M136.5,176.5l5.6,0"/>
	<path class="st11" d="M117.5,176.5h3.9"/>
	<path class="st11" d="M101.4,176.5h7.8"/>
	<path class="st11" d="M55.2,176.6l6.1,0"/>
	<path class="st11" d="M15.1,176.5l19,0.1"/>
	<path class="st9" d="M222.5,80.4h-11v14.2h11V80.4z"/>
	<path class="st6" d="M225,80.4h-3.6v14.2h3.6V80.4z"/>
	<path class="st6" d="M219.6,82h-6.9v12.7h6.9V82z"/>
	<path class="st8" d="M219.6,83.4h-8.4V85h8.4V83.4z"/>
	<path class="st10" d="M219.6,83.4h-2.4V85h2.4V83.4z"/>
	<path class="st8" d="M219.6,86.2h-8.4v1.5h8.4V86.2z"/>
	<path class="st10" d="M219.6,86.2h-2.4v1.5h2.4V86.2z"/>
	<path class="st8" d="M219.6,88.9h-8.4v1.5h8.4V88.9z"/>
	<path class="st10" d="M219.6,88.9h-2.4v1.5h2.4V88.9z"/>
	<path class="st8" d="M219.6,91.6h-8.4v1.5h8.4V91.6z"/>
	<path class="st10" d="M219.6,91.6h-2.4v1.5h2.4V91.6z"/>
	<path class="st9" d="M234.5,80.4h-11v14.2h11V80.4z"/>
	<path class="st6" d="M237,80.4h-3.6v14.2h3.6V80.4z"/>
	<path class="st6" d="M231.5,82h-6.9v12.7h6.9V82z"/>
	<path class="st8" d="M231.5,83.4h-8.4V85h8.4V83.4z"/>
	<path class="st10" d="M231.6,83.4h-2.4V85h2.4V83.4z"/>
	<path class="st8" d="M231.5,86.2h-8.4v1.5h8.4V86.2z"/>
	<path class="st10" d="M231.6,86.2h-2.4v1.5h2.4V86.2z"/>
	<path class="st8" d="M231.5,88.9h-8.4v1.5h8.4V88.9z"/>
	<path class="st10" d="M231.6,88.9h-2.4v1.5h2.4V88.9z"/>
	<path class="st8" d="M231.5,91.6h-8.4v1.5h8.4V91.6z"/>
	<path class="st10" d="M231.6,91.6h-2.4v1.5h2.4V91.6z"/>
	<path class="st0" d="M256,94.6h-50.8l-33.6,89.9H256V94.6z"/>
	<path class="st2" d="M256,180H0.4v14H256V180z"/>
	<path class="st1" d="M233.4,94.9l1.4-4l1.4,4H233.4z"/>
	<path class="st1" d="M233.4,93.2l1.4-4l1.4,4H233.4z"/>
	<path class="st1" d="M233.4,91.6l1.4-4l1.4,4H233.4z"/>
	<path class="st1" d="M241.1,91.6h0.6l-1.3-3.8l-1.3,3.8h0.5l-0.5,1.6h0.5l-0.5,1.6h2.5l-0.6-1.6h0.6L241.1,91.6z"/>
	<path class="st2" d="M244.7,88.5h1l-2.5-7.6l-2.5,7.6h1l-1,3.2h1l-1,3.2h5l-1-3.2h1L244.7,88.5z"/>
	<path class="st3" d="M238.8,89h0.8l-1.9-7l-1.9,7h0.8l-0.8,2.9h0.8l-0.8,2.9h3.7l-0.8-2.9h0.8L238.8,89z"/>
	<path class="st3" d="M230.8,94.9l1.7-4.8l1.7,4.8H230.8z"/>
	<path class="st3" d="M230.8,92.9l1.7-4.8l1.7,4.8H230.8z"/>
	<path class="st3" d="M230.8,90.9l1.7-4.8l1.7,4.8H230.8z"/>
	<path class="st2" d="M230.6,92.1h0.5l-1.2-3.3l-1.2,3.3h0.5l-0.5,1.4h0.5l-0.5,1.4h2.3l-0.5-1.4h0.5L230.6,92.1z"/>
	<path class="st1" d="M249.1,94.9l1.4-4l1.4,4H249.1z"/>
	<path class="st1" d="M249.1,93.2l1.4-4l1.4,4H249.1z"/>
	<path class="st1" d="M249.1,91.6l1.4-4l1.4,4H249.1z"/>
	<path class="st3" d="M254.6,89h0.8l-1.9-7l-1.9,7h0.8l-0.8,2.9h0.8l-0.8,2.9h3.7l-0.8-2.9h0.8L254.6,89z"/>
	<path class="st3" d="M246.5,94.9l1.7-4.8l1.7,4.8H246.5z"/>
	<path class="st3" d="M246.5,92.9l1.7-4.8l1.7,4.8H246.5z"/>
	<path class="st3" d="M246.5,90.9l1.7-4.8l1.7,4.8H246.5z"/>
	<path class="st2" d="M246.3,92.1h0.5l-1.1-3.3l-1.2,3.3h0.5l-0.5,1.4h0.5l-0.5,1.4h2.3l-0.5-1.4h0.5L246.3,92.1z"/>
	<path class="st1" d="M183.1,194l7.6-21.7l7.6,21.7H183.1z"/>
	<path class="st1" d="M183.1,184.9l7.6-21.7l7.6,21.7H183.1z"/>
	<path class="st1" d="M183.1,175.8l7.6-21.7l7.6,21.7H183.1z"/>
	<path class="st1" d="M225.5,176.2h2.9l-6.9-21.2l-6.9,21.2h2.9l-2.9,8.9h2.9l-2.9,8.9h13.8l-2.9-8.9h2.9L225.5,176.2z"/>
	<path class="st2" d="M245.1,158.9h5.7L237.2,117l-13.6,41.9h5.7l-5.7,17.5h5.7l-5.7,17.6h27.3l-5.7-17.6h5.7L245.1,158.9z"/>
	<path class="st3" d="M212.9,161.8h4.3l-10.3-38.4l-10.3,38.4h4.3l-4.3,16.1h4.3l-4.3,16.1h20.6l-4.3-16.1h4.3L212.9,161.8z"/>
	<path class="st3" d="M168.7,194l9.2-26.4l9.2,26.4H168.7z"/>
	<path class="st3" d="M168.7,182.9l9.2-26.4l9.2,26.4H168.7z"/>
	<path class="st3" d="M168.7,171.8l9.2-26.4l9.2,26.4H168.7z"/>
	<path class="st2" d="M167.6,178.7h2.7l-6.4-18.3l-6.4,18.3h2.7l-2.7,7.7h2.7l-2.7,7.6h12.8l-2.7-7.6h2.7L167.6,178.7z"/>
</g>
</svg>
