<?xml version="1.0" encoding="utf-8"?>
<!-- Generator: Adobe Illustrator 26.1.0, SVG Export Plug-In . SVG Version: 6.00 Build 0)  -->
<svg version="1.1" id="Слой_1" xmlns="http://www.w3.org/2000/svg" xmlns:xlink="http://www.w3.org/1999/xlink" x="0px" y="0px"
	 viewBox="0 0 256 256" style="enable-background:new 0 0 256 256;" xml:space="preserve">
<style type="text/css">
	.st0{fill:#FFFFFF;stroke:#000000;stroke-miterlimit:10;}
</style>
<rect class="st0" width="256" height="256"/>
<path d="M173,151.9l5.1-7.4l-45.5-31.3V99.9c19.4-2.2,34.5-18.8,34.5-38.7c0-21.5-17.5-39-39-39s-39,17.5-39,39
	c0,20,15.1,36.5,34.5,38.7v13.3L78,144.5l5.1,7.4l40.5-27.8v62.3L83.3,226l6.3,6.4l38.3-37.8l38.3,37.8l6.3-6.4l-40.2-39.6v-62.3
	L173,151.9z M128,91.2c-16.5,0-30-13.5-30-30s13.5-30,30-30s30,13.5,30,30S144.5,91.2,128,91.2z"/>
</svg>
