<svg xmlns="http://www.w3.org/2000/svg" viewBox="0 0 48 48">
  <defs>
    <style>
      .a {
        fill: #ddd;
      }

      .a, .b, .c {
        fill-rule: evenodd;
      }

      .b {
        fill: #ed1b2e;
      }
    </style>
  </defs>
  <path class="a" d="M23.264,13.6a7.9785,7.9785,0,1,1-7.979,7.979A7.994,7.994,0,0,1,23.264,13.6Z"/>
  <path class="b" d="M39.2,39.152H20.07V20.027a.04656.04656,0,0,1,.047-.048c.027,0,.038.021.048.048a28.204,28.204,0,0,0,19.03,19.029c.026.01.048.021.048.048A.04092.04092,0,0,1,39.2,39.152Z"/>
  <path class="c" d="M10.49,10.341V26.165h6.198a7.9975,7.9975,0,1,1,13.12,0h6.23V10.341Z"/>
</svg>
